<?xml version="1.0" standalone="no"?><!DOCTYPE svg PUBLIC "-//W3C//DTD SVG 1.1//EN" "http://www.w3.org/Graphics/SVG/1.1/DTD/svg11.dtd"><svg t="1637856578212" class="icon" viewBox="0 0 1024 1024" version="1.1" xmlns="http://www.w3.org/2000/svg" p-id="37089" xmlns:xlink="http://www.w3.org/1999/xlink" width="200" height="200"><defs><style type="text/css"></style></defs><path d="M575.151169 238.750162h-34.380973V232.597034c0-22.386825 11.179598-42.948075 29.943926-55.082416 35.278411-22.751121 56.346197-61.402342 56.346197-103.367022V37.407907h-57.52709v36.739689c0 22.330543-11.234856 42.919423-29.998161 55.025111-35.280457 22.780797-56.305264 61.430995-56.305264 103.423304v6.153128H448.821202c-123.759428 0-224.458696 100.698245-224.458697 224.457672v235.751881c0 158.590654 129.0407 287.633401 287.643635 287.633401 158.590654 0 287.630331-129.042747 287.630331-287.633401V463.207835c0-123.759428-100.726898-224.457673-224.485302-224.457673z m166.962306 460.209553c0 126.878459-103.258552 230.106312-230.107335 230.106312-126.891762 0-230.119615-103.227853-230.119615-230.106312V463.207835c0-92.047232 74.886421-166.93263 166.934677-166.93263h126.329967c92.075884 0 166.962306 74.885398 166.962306 166.93263v235.75188z" p-id="37090" fill="#8a8a8a"></path><path d="M483.22878 382.565328h57.541416v172.578198h-57.541416z" p-id="37091" fill="#8a8a8a"></path></svg>