<?xml version="1.0" standalone="no"?><!DOCTYPE svg PUBLIC "-//W3C//DTD SVG 1.1//EN" "http://www.w3.org/Graphics/SVG/1.1/DTD/svg11.dtd"><svg t="1637701582858" class="icon" viewBox="0 0 1024 1024" version="1.1" xmlns="http://www.w3.org/2000/svg" p-id="8982" xmlns:xlink="http://www.w3.org/1999/xlink" width="200" height="200"><defs><style type="text/css"></style></defs><path d="M683.3 720.7c-3.2 0-6.3-1.5-8.2-4.3-3.1-4.5-2-10.8 2.6-13.9 21.6-14.9 42.6-31.8 62.3-50.4 5.9-5.5 11.5-11.1 16.8-16.6 3.6-3.7 7.2-7.5 10.9-11.6 5.9-6.4 6.1-18.5 0.6-25.3l-16.4-20.3C703 624.1 624 682.2 523.9 700.5c-56.2 10.3-112.8 6.7-168.4-10.8-63-19.7-125.5-57.6-185.9-112.4l-15.9 20.1c-5.6 7-5.1 19.4 1 25.5 3.9 3.9 7.5 7.5 11 10.9 4.7 4.6 9.5 9.1 14.2 13.5 14.4 13.3 29.1 25.8 43.7 37.1 4.4 3.4 5.2 9.7 1.8 14-3.4 4.4-9.7 5.2-14 1.8-15-11.6-30.2-24.5-45.1-38.2-4.9-4.6-9.8-9.2-14.6-13.9-3.6-3.5-7.3-7.2-11.3-11.2-13.1-13.3-14.2-37.1-2.4-52l29.3-37 9 8.4c0.7 0.7 1.5 1.4 2.2 2.1C289.3 660.8 404.2 702 520.2 680.8c95.7-17.5 171.6-73.6 218.5-117.7 2.5-2.3 4.9-4.6 7.1-6.8l7.8-7.6 30.1 37.1c11.9 14.6 11.3 37.7-1.3 51.4-3.9 4.3-7.6 8.2-11.4 12-5.5 5.6-11.4 11.4-17.5 17.2-20.5 19.2-42.2 36.8-64.6 52.3-1.7 1.4-3.7 2-5.6 2z" fill="#8a8a8a" p-id="8983"></path><path d="M250.5 724.6c-1.9 0-3.8-0.5-5.5-1.7-4.6-3.1-9.3-6.2-13.9-9.5-22.3-15.7-44.8-34-66.7-54.4-0.8-0.7-1.6-1.5-2.4-2.2l-1.1-1c-3.9-3.6-7.7-7.3-11.3-10.8-3.6-3.5-7.4-7.3-11.4-11.3-13.2-13.4-14.3-37.5-2.4-52.5l54-68.4 7.9 6.8C308.7 615.6 423.4 651 539 625c5.4-1.2 10.7 2.2 12 7.6 1.2 5.4-2.2 10.7-7.6 12-55.8 12.6-112.2 11.5-167.6-3.1-61.9-16.4-123.5-49.9-183.1-99.9l-41.1 52c-5.7 7.2-5.2 19.8 1 26.1 3.9 4 7.5 7.6 11.1 11 3.6 3.5 7.3 7 11 10.6l1.1 1c0.8 0.7 1.5 1.4 2.3 2.1 21.3 19.7 43 37.5 64.6 52.7 4.4 3.1 9 6.2 13.4 9.2 4.6 3 5.9 9.2 2.8 13.9-2 2.8-5.2 4.4-8.4 4.4z" fill="#8a8a8a" p-id="8984"></path><path d="M463.8 794c-45.2 0-90.2-8.9-134.9-26.7-5.1-2-7.6-7.9-5.6-13s7.9-7.6 13-5.6c184.8 73.7 334.9-30.7 407.9-99.5 2.5-2.3 4.9-4.7 7.2-6.9 3.7-3.6 6.9-6.9 9.9-9.9 3.7-3.7 7.3-7.6 11.1-11.7 6-6.5 6.2-18.9 0.6-25.9l-39.2-48.4c-38.5 32.1-79.2 57.5-121 75.5-5.1 2.2-11-0.2-13.1-5.2-2.2-5.1 0.2-11 5.2-13.1 42.8-18.4 84.5-45 123.7-79l7.8-6.8 52.1 64.4c11.9 14.7 11.3 38-1.3 51.9-4 4.3-7.7 8.3-11.5 12.2-3 3.1-6.4 6.5-10.2 10.3-2.4 2.3-4.8 4.7-7.4 7.1-36 33.9-94.4 80-168.3 107.2-42 15.4-84.1 23.1-126 23.1zM250.5 724.6c-1.9 0-3.8-0.5-5.5-1.7-0.8-0.5-1.6-1.1-2.4-1.6-2.4-1.6-4.8-3.2-7.1-4.8-2.4-1.7-4.9-3.4-7.3-5.1a631.89 631.89 0 0 1-45.5-35.9c-6.1-5.3-12.2-10.8-18.3-16.3-0.8-0.7-1.6-1.5-2.4-2.2l-1.1-1c-3.9-3.6-7.6-7.3-11.3-10.8-3.6-3.6-7.4-7.3-11.4-11.4-13.2-13.4-14.3-37.4-2.4-52.5l299.3-378.9c5.8-7.4 14.2-11.7 22.8-11.7h0.2c8.6 0 16.9 4.1 22.7 11.4L539 274c3.5 4.3 2.8 10.6-1.5 14.1s-10.6 2.8-14.1-1.5l-58.2-71.9c-2.1-2.6-4.7-4-7.2-4-2.6 0-5.2 1.5-7.3 4.1L151.6 593.6c-5.7 7.2-5.2 19.8 1 26.1 3.9 4 7.5 7.6 11.1 11.1 3.6 3.5 7.3 7 11 10.6l1.1 1c0.8 0.7 1.5 1.4 2.3 2.1 5.9 5.4 11.8 10.8 17.7 15.9 14.6 12.6 29.4 24.3 44.1 34.8 2.3 1.7 4.7 3.3 7 4.9 2.3 1.6 4.6 3.1 6.9 4.7 0.8 0.5 1.6 1 2.3 1.6 4.6 3 5.9 9.2 2.8 13.9-2 2.7-5.2 4.3-8.4 4.3z" fill="#8a8a8a" p-id="8985"></path><path d="M463.7 794c-60.7 0-121.1-16.1-180.5-48.1-2.1-1.1-4.2-2.3-6.3-3.5-4.8-2.7-6.5-8.8-3.8-13.6 2.7-4.8 8.8-6.5 13.6-3.8 2 1.1 4.1 2.2 6.1 3.3 84.4 45.5 170.9 57.1 257 34.3 76.4-20.2 138.3-64.1 176.8-97.4 6-5.2 12-10.6 17.7-16 2.6-2.4 5.1-4.8 7.2-6.9 3.7-3.6 6.9-6.9 9.9-9.9 3.7-3.7 7.3-7.6 11.1-11.7 6-6.5 6.2-18.9 0.6-25.9l-19.6-24.2-196-242.2c-3.5-4.3-2.8-10.6 1.5-14.1s10.6-2.8 14.1 1.5L768.9 558l19.5 24.2c11.9 14.7 11.3 38-1.3 51.9-4 4.3-7.7 8.3-11.5 12.2-3 3.1-6.4 6.5-10.2 10.3-2.2 2.1-4.8 4.6-7.4 7.1-6 5.6-12.2 11.2-18.4 16.6-40.1 34.6-104.7 80.4-184.7 101.6-30.4 8-60.8 12.1-91.2 12.1z" fill="#8a8a8a" p-id="8986"></path><path d="M628.7 572c-11.4 0-21.9-7.5-25.2-18.9l-0.1-0.5-0.1-0.5c-0.1-0.6-2.1-15.3-2.8-30.5-1.3-25.8 1.5-36.8 9.9-39.2 8.4-2.4 16.6 5.4 29.3 27.9 7.5 13.3 13.6 26.8 13.8 27.3l0.2 0.5 0.1 0.5c1.9 6.7 1.1 13.8-2.2 19.9-3.4 6.1-8.9 10.6-15.7 12.5-2.3 0.7-4.8 1-7.2 1z m-11.6-22.4c2 6.2 8.6 9.7 15 7.9 3.1-0.9 5.7-3 7.3-5.8 1.5-2.7 1.9-5.8 1.2-8.8-9-19.7-19.6-38.1-25.6-44.7-1.5 8.7-0.8 30 2.1 51.4zM460.1 351.8c-6.9 0-13.4-2.7-18.4-7.5-5-4.9-7.8-11.5-7.8-18.5v-0.5l0.1-0.5c0.1-0.6 2.1-15.2 5.5-30.2 5.7-25.2 11.4-35 20.1-35.1h0.1c8.7 0 14.5 9.8 20.6 34.8 3.6 14.9 5.9 29.5 6 30.1l0.1 0.5v0.5c0 7-2.6 13.6-7.5 18.6-4.9 5-11.5 7.8-18.5 7.8h-0.3z m-12.2-25.7c0.3 6.5 5.6 11.7 12.2 11.7h0.1c6.6 0 11.9-5.3 12.1-11.8-3.3-21.4-8.6-42-12.5-49.9-3.9 7.9-8.9 28.6-11.9 50zM554.2 456.2c-11.1 0-21.5-7.2-25-18.3l-0.2-0.5-0.1-0.5c-0.1-0.6-2.5-15.2-3.6-30.4-1.9-25.7 0.6-36.8 8.9-39.4 8.3-2.6 16.7 5 29.9 27.2 7.8 13.1 14.3 26.4 14.5 27l0.2 0.5 0.2 0.5c2.1 6.7 1.5 13.8-1.7 20-3.2 6.2-8.7 10.8-15.4 12.9-2.4 0.6-5.1 1-7.7 1z m-11.5-22.1c2.2 6.1 8.9 9.5 15.2 7.5 3.1-1 5.6-3.1 7.1-6 1.4-2.8 1.8-5.9 0.9-8.9-9.5-19.5-20.5-37.6-26.7-44-1.3 8.8 0.1 30 3.5 51.4zM362.2 456.2c-3 0-5.9-0.5-8.8-1.5-6.6-2.3-11.9-7.1-14.9-13.4-3-6.3-3.4-13.4-1-20l0.2-0.5 0.2-0.4c0.3-0.5 7.2-13.6 15.5-26.5 14-21.7 22.6-29 30.9-26.1 8.3 2.9 10.4 14.1 7.5 39.7-1.7 15.2-4.5 29.7-4.7 30.3l-0.1 0.5-0.2 0.5c-2.3 6.6-7.1 11.9-13.4 14.9-3.6 1.7-7.4 2.5-11.2 2.5z m-11.7-29.8c-2 6.2 1.4 12.9 7.6 15.1 3.1 1.1 6.4 0.9 9.3-0.5 2.8-1.3 5-3.6 6.1-6.5 4.2-21.3 6.3-42.4 5.2-51.2-6.3 6.2-18 23.9-28.2 43.1zM459.6 467.3c-14.3 0-26-11.5-26.2-25.8v-0.5l0.1-0.5c0.1-0.6 2-15.3 5.3-30.2 5.5-25.2 11.1-35.1 19.9-35.2h0.2c8.7 0 14.5 9.7 20.7 34.6 3.7 14.8 6.1 29.4 6.2 30l0.1 0.5v0.5c0.1 7-2.5 13.6-7.4 18.6-4.9 5-11.4 7.8-18.4 7.9-0.2 0.1-0.3 0.1-0.5 0.1z m-12.1-25.5c0.3 6.4 5.7 11.6 12.2 11.6h0.2c3.3 0 6.3-1.4 8.6-3.7 2.2-2.2 3.4-5.1 3.4-8.2-3.5-21.4-8.9-41.9-12.9-49.8-3.9 7.9-8.7 28.6-11.5 50.1zM395.6 589.9c-0.9 0-1.8 0-2.7-0.1-7-0.7-13.2-4.1-17.7-9.5-4.4-5.4-6.5-12.2-5.8-19.2l0.1-0.5 0.1-0.5c0.2-0.6 3.7-14.9 8.7-29.4 8.4-24.4 15.1-33.6 23.8-32.7 8.7 0.9 13.4 11.2 16.8 36.8 2 15.2 2.7 29.9 2.7 30.5v0.5l-0.1 0.5c-0.7 7-4.1 13.2-9.5 17.7-4.6 3.9-10.4 5.9-16.4 5.9zM383.4 563c-0.2 3.1 0.8 6.1 2.7 8.5 2.1 2.5 5 4.1 8.2 4.4 3.2 0.3 6.4-0.6 8.9-2.7 2.4-2 3.9-4.7 4.4-7.8-1-21.7-4-42.7-7.1-51-4.7 7.6-11.8 27.5-17.1 48.6zM277.2 551.3c-4.7 0-9.3-1.3-13.4-3.7-12.4-7.4-16.4-23.5-9-35.9l0.3-0.4 0.3-0.4c0.4-0.5 9.7-11.9 20.4-22.9 18-18.5 27.9-24 35.4-19.5s7.4 15.8-0.4 40.4c-4.6 14.6-10.3 28.2-10.5 28.8l-0.2 0.5-0.3 0.4c-3.6 6-9.3 10.2-16.1 12-2.2 0.4-4.4 0.7-6.5 0.7z m-10.7-32.1c-3.1 5.7-1.2 13 4.4 16.3 2.8 1.7 6.1 2.2 9.2 1.4 3-0.8 5.6-2.6 7.3-5.2 8.3-20 14.5-40.3 15.2-49.2-7.4 4.9-22.3 20-36.1 36.7zM521.7 590.2c-13.3 0-24.7-10.1-26-23.5l-0.1-0.5v-0.5c0-0.6 0.7-15.4 2.7-30.5 3.3-25.6 8-35.9 16.7-36.8 8.7-0.9 15.4 8.3 23.8 32.7 5 14.4 8.6 28.8 8.8 29.4l0.1 0.5 0.1 0.5c0.7 7-1.3 13.8-5.8 19.2-4.4 5.4-10.7 8.8-17.6 9.5h-2.7z m-12-24.5c0.9 6.5 6.8 11.1 13.3 10.4 6.5-0.7 11.4-6.4 10.9-12.9-5.3-21-12.5-41-17.2-48.5-3.1 8.4-6.1 29.4-7 51z" fill="#8a8a8a" p-id="8987"></path></svg>