<?xml version="1.0" standalone="no"?><!DOCTYPE svg PUBLIC "-//W3C//DTD SVG 1.1//EN" "http://www.w3.org/Graphics/SVG/1.1/DTD/svg11.dtd"><svg t="1637853861046" class="icon" viewBox="0 0 1024 1024" version="1.1" xmlns="http://www.w3.org/2000/svg" p-id="6410" xmlns:xlink="http://www.w3.org/1999/xlink" width="200" height="200"><defs><style type="text/css"></style></defs><path d="M611.5296 902.4976l-20.8784-14.816 296.0512-417.2096L494.9232 113.3072l-45.2992 47.2032-18.4704-17.7248 62.576-65.208 426.9616 389.2368z" fill="#8a8a8a" p-id="6411"></path><path d="M827.0736 952.5056H374.448l95.7312-72.072h269.2896l87.6048 72.072z m-376.0592-25.6h304.6464l-25.3696-20.872h-251.552l-27.7248 20.872zM136.0256 114.184L464.4304 442.592l-33.824 33.824L102.2032 148.0064z" fill="#8a8a8a" p-id="6412"></path><path d="M432.152 444.9424L133.6768 146.4672l9.6816-10.2032a111.7632 111.7632 0 0 1 2.7008-2.8208c39.9488-39.9488 93.064-61.9504 149.56-61.9504 56.496 0 109.6096 22 149.5584 61.9488 82.4672 82.4672 82.4672 216.6512 0 299.1184a111.7632 111.7632 0 0 1-2.8208 2.7008l-10.2048 9.6816zM169.6672 146.2544l262.6976 262.6976c67.1472-72.8336 65.3856-186.7296-5.2896-257.4064-35.1136-35.1136-81.8-54.4512-131.4576-54.4512-47.104 0-91.536 17.4016-125.9504 49.16z" fill="#8a8a8a" p-id="6413"></path><path d="M273 371.608c-17.6256 0-34.1968-6.864-46.6608-19.328s-19.328-29.0336-19.328-46.6608c0-17.6256 6.8656-34.1968 19.328-46.6592 0.3136-0.3152 0.6464-0.6304 0.9792-0.9408l0.2528-0.2368 9.0448-8.6 92.8208 92.8208-8.8448 9.3056c-0.3024 0.3232-0.6064 0.6464-0.9216 0.9616-12.4736 12.4736-29.0448 19.3376-46.6704 19.3376zM237.52 286.288a40.1632 40.1632 0 0 0-4.9072 19.3328c0 10.7888 4.2 20.9312 11.8288 28.5584s17.7712 11.8288 28.5584 11.8288c6.8672 0 13.472-1.7024 19.3344-4.9072L237.52 286.288z" fill="#8a8a8a" p-id="6414"></path></svg>