<?xml version="1.0" standalone="no"?><!DOCTYPE svg PUBLIC "-//W3C//DTD SVG 1.1//EN" "http://www.w3.org/Graphics/SVG/1.1/DTD/svg11.dtd"><svg t="1637853816977" class="icon" viewBox="0 0 1024 1024" version="1.1" xmlns="http://www.w3.org/2000/svg" p-id="5234" xmlns:xlink="http://www.w3.org/1999/xlink" width="200" height="200"><defs><style type="text/css"></style></defs><path d="M192 128v832h704V128H192z m640 768H256V192h576v704z" p-id="5235" fill="#8a8a8a"></path><path d="M768 256H320v192h448V256z m-64 128H384V320h320v64zM320 512h64v64H320zM448 512h64v64H448zM576 512h64v64H576zM704 512h64v64h-64zM320 640h64v64H320zM448 640h64v64H448zM576 640h64v64H576zM704 640h64v192h-64zM320 768h64v64H320zM448 768h64v64H448zM576 768h64v64H576z" p-id="5236" fill="#8a8a8a"></path></svg>