<?xml version="1.0" standalone="no"?><!DOCTYPE svg PUBLIC "-//W3C//DTD SVG 1.1//EN" "http://www.w3.org/Graphics/SVG/1.1/DTD/svg11.dtd"><svg t="1637857395877" class="icon" viewBox="0 0 1024 1024" version="1.1" xmlns="http://www.w3.org/2000/svg" p-id="48844" xmlns:xlink="http://www.w3.org/1999/xlink" width="200" height="200"><defs><style type="text/css"></style></defs><path d="M597.681633 660.897959c-68.440816 0-124.342857-55.902041-124.342857-124.342857 0-11.493878 9.404082-20.897959 20.897959-20.897959s20.897959 9.404082 20.897959 20.897959c0 45.453061 37.093878 82.546939 82.546939 82.546939 11.493878 0 20.897959 9.404082 20.897959 20.897959s-9.404082 20.897959-20.897959 20.897959z" p-id="48845" fill="#8a8a8a"></path><path d="M641.567347 929.959184h-308.244898c-19.330612 0-37.093878-8.881633-49.110204-24.032653-12.016327-15.15102-16.195918-34.481633-11.493878-53.289796l117.551021-469.681633c6.791837-27.689796 31.869388-47.020408 60.604081-47.020408h73.665307c28.734694 0 53.289796 19.330612 60.604081 47.020408l27.689796 110.759184c78.889796 9.404082 140.538776 76.8 140.538776 157.779592 0 52.244898-25.6 100.832653-68.440817 130.612244l17.763266 70.530613c4.702041 18.808163 0.522449 38.138776-11.493878 53.289796-12.016327 15.15102-30.302041 24.032653-49.632653 24.032653zM450.873469 377.730612c-9.404082 0-17.763265 6.269388-19.853061 15.67347L313.469388 862.563265c-1.567347 6.269388 0 12.538776 3.657143 17.763266s9.926531 7.836735 16.195918 7.836734h308.244898c6.269388 0 12.016327-3.134694 16.195918-7.836734 4.179592-5.22449 5.22449-11.493878 3.657143-17.763266l-21.420408-85.159183c-2.089796-9.404082 2.089796-18.808163 9.926531-23.510204 37.616327-20.897959 60.604082-60.081633 60.604081-102.4 0-63.738776-51.722449-115.983673-115.461224-117.028572-9.404082 0-17.763265-6.791837-19.853061-15.673469l-31.346939-125.387755c-2.089796-9.404082-10.44898-15.673469-19.853061-15.67347h-73.142858z" p-id="48846" fill="#8a8a8a"></path><path d="M368.326531 578.35102c-1.567347 0-3.657143 0-5.22449-0.522449-56.946939-14.628571-91.95102-72.620408-77.844898-129.567347l57.991837-234.579591c2.612245-10.44898 6.791837-20.37551 12.016326-29.257143C377.208163 130.089796 429.453061 94.040816 487.444898 94.040816c78.367347 0 141.583673 63.738776 141.583673 141.583674 0 66.873469-45.97551 123.297959-110.236734 137.92653-3.134694 2.089796-7.314286 3.657143-12.016327 3.657143H450.873469c-9.404082 0-17.763265 6.269388-19.853061 15.67347l-42.318367 169.795918c-1.567347 5.22449-4.702041 9.926531-9.404082 13.061225-3.657143 1.567347-7.314286 2.612245-10.971428 2.612244zM487.444898 135.836735c-41.273469 0-78.889796 26.122449-93.518367 64.783673-0.522449 1.567347-1.044898 2.612245-2.089796 3.657143-3.657143 5.746939-6.791837 12.538776-8.359184 19.330612l-57.469388 234.579592c-6.791837 27.689796 5.22449 55.902041 28.212245 70.530612l36.571429-145.763265c6.791837-27.689796 31.869388-47.020408 60.604081-47.020408h48.587755c1.567347-0.522449 3.134694-1.044898 5.22449-1.567347 48.065306-8.359184 83.069388-49.632653 83.069388-98.220408-0.522449-55.379592-45.453061-100.310204-100.832653-100.310204z" p-id="48847" fill="#8a8a8a"></path></svg>