<?xml version="1.0" standalone="no"?><!DOCTYPE svg PUBLIC "-//W3C//DTD SVG 1.1//EN" "http://www.w3.org/Graphics/SVG/1.1/DTD/svg11.dtd"><svg t="1637857195499" class="icon" viewBox="0 0 1024 1024" version="1.1" xmlns="http://www.w3.org/2000/svg" p-id="42499" xmlns:xlink="http://www.w3.org/1999/xlink" width="200" height="200"><defs><style type="text/css"></style></defs><path d="M423.04 760.746667a21.333333 21.333333 0 0 1-15.146667-6.186667l-75.733333-75.946667A21.333333 21.333333 0 1 1 362.666667 648.533333l75.52 76.8a21.333333 21.333333 0 0 1 0 30.293334 21.333333 21.333333 0 0 1-15.146667 5.12zM508.373333 675.413333a21.333333 21.333333 0 0 1-14.933333-6.4l-75.946667-75.946666A21.333333 21.333333 0 1 1 448 562.986667L523.52 640a21.333333 21.333333 0 0 1 0 30.08 21.333333 21.333333 0 0 1-15.146667 5.333333zM583.893333 599.893333a21.333333 21.333333 0 0 1-15.146666-6.186666l-75.733334-75.946667a21.333333 21.333333 0 1 1 30.08-30.08l75.946667 75.733333a21.333333 21.333333 0 0 1 0 30.293334 21.333333 21.333333 0 0 1-15.146667 6.186666z" p-id="42500" fill="#8a8a8a"></path><path d="M302.08 854.4a140.8 140.8 0 0 1-99.626667-240.213333l329.6-329.6 199.04 199.04-329.6 329.6a139.093333 139.093333 0 0 1-99.413333 41.173333z m229.973333-509.44l-298.666666 298.666667a98.133333 98.133333 0 0 0 138.666666 138.88l298.666667-298.666667z" p-id="42501" fill="#8a8a8a"></path><path d="M785.493333 589.44a21.333333 21.333333 0 0 1-15.146666-6.186667L432.426667 245.333333a21.333333 21.333333 0 0 1 30.08-30.08l337.92 337.92a21.333333 21.333333 0 0 1 0 30.08 21.333333 21.333333 0 0 1-14.933334 6.186667zM829.226667 391.893333a21.333333 21.333333 0 0 1-15.146667-6.186666l-184.106667-184.106667a21.333333 21.333333 0 0 1 0-30.08A21.333333 21.333333 0 0 1 661.333333 170.666667l183.893334 183.893333a21.333333 21.333333 0 0 1-14.933334 36.48z" p-id="42502" fill="#8a8a8a"></path><path d="M665.813333 446.506667a21.333333 21.333333 0 0 1-14.933333-36.48l105.6-105.386667a21.333333 21.333333 0 0 1 30.08 0 21.333333 21.333333 0 0 1 0 30.08l-105.6 106.666667a21.333333 21.333333 0 0 1-15.146667 5.12zM590.506667 371.2a21.333333 21.333333 0 0 1-14.506667-36.48l106.666667-105.6a21.333333 21.333333 0 0 1 30.293333 0 21.333333 21.333333 0 0 1 0 30.08l-106.666667 106.666667a21.333333 21.333333 0 0 1-15.786666 5.333333zM145.493333 891.52a21.333333 21.333333 0 0 1-15.146666-6.186667 21.333333 21.333333 0 0 1 0-30.293333l60.373333-60.16a21.333333 21.333333 0 0 1 30.08 0 21.333333 21.333333 0 0 1 0 30.08L160.64 885.333333a21.333333 21.333333 0 0 1-15.146667 6.186667z" p-id="42503" fill="#8a8a8a"></path></svg>