<?xml version="1.0" standalone="no"?><!DOCTYPE svg PUBLIC "-//W3C//DTD SVG 1.1//EN" "http://www.w3.org/Graphics/SVG/1.1/DTD/svg11.dtd"><svg t="1637857305373" class="icon" viewBox="0 0 1024 1024" version="1.1" xmlns="http://www.w3.org/2000/svg" p-id="46777" xmlns:xlink="http://www.w3.org/1999/xlink" width="200" height="200"><defs><style type="text/css"></style></defs><path d="M358.4 580.266667a34.133333 34.133333 0 0 1 34.048 31.573333L392.533333 614.4v65.826133C392.533333 784.554667 480.733867 870.4 588.8 870.4c106.376533 0 193.501867-83.2 196.1984-185.2928l0.068267-4.881067a34.133333 34.133333 0 0 1 68.181333-2.56l0.085333 2.56C853.333333 822.6304 734.173867 938.666667 588.8 938.666667c-143.547733 0-261.546667-113.134933-264.482133-253.098667L324.266667 680.209067V614.4a34.133333 34.133333 0 0 1 34.133333-34.133333z" fill="#8a8a8a" p-id="46778"></path><path d="M204.8 68.266667a34.133333 34.133333 0 0 1 2.56 68.181333L204.8 136.533333H136.533333v221.866667c0 121.941333 99.925333 221.866667 221.866667 221.866667 120.200533 0 218.999467-97.0752 221.7984-216.661334L580.266667 358.4V136.533333h-68.266667a34.133333 34.133333 0 0 1-2.56-68.181333L512 68.266667h68.266667a68.266667 68.266667 0 0 1 68.181333 64.853333L648.533333 136.533333v221.866667c0 159.658667-130.474667 290.133333-290.133333 290.133333-157.815467 0-287.1296-127.488-290.082133-284.637866L68.266667 358.4V136.533333a68.266667 68.266667 0 0 1 64.853333-68.181333L136.533333 68.266667h68.266667z" fill="#8a8a8a" p-id="46779"></path><path d="M819.2 426.666667a136.533333 136.533333 0 1 0 0.034133 273.1008A136.533333 136.533333 0 0 0 819.2 426.666667z m0 68.266666a68.266667 68.266667 0 1 1-0.034133 136.567467A68.266667 68.266667 0 0 1 819.2 494.933333z" fill="#8a8a8a" p-id="46780"></path></svg>