<?xml version="1.0" standalone="no"?><!DOCTYPE svg PUBLIC "-//W3C//DTD SVG 1.1//EN" "http://www.w3.org/Graphics/SVG/1.1/DTD/svg11.dtd"><svg t="1637857240408" class="icon" viewBox="0 0 1024 1024" version="1.1" xmlns="http://www.w3.org/2000/svg" p-id="44243" xmlns:xlink="http://www.w3.org/1999/xlink" width="200" height="200"><defs><style type="text/css"></style></defs><path d="M512 925.2c-22.6 0-43.8-8.8-59.8-24.8L123.6 571.8c-16-16-24.8-37.2-24.8-59.8 0-22.6 8.8-43.8 24.8-59.8l328.5-328.5c16-16 37.2-24.8 59.8-24.8 22.6 0 43.8 8.8 59.8 24.8l328.5 328.5c16 16 24.8 37.2 24.8 59.8 0 22.6-8.8 43.8-24.8 59.8L571.8 900.4c-16 16-37.2 24.8-59.8 24.8z m0-776.4c-9.2 0-17.9 3.6-24.5 10.1L159 487.5c-6.5 6.5-10.1 15.2-10.1 24.5 0 9.2 3.6 17.9 10.1 24.5L487.5 865c6.5 6.5 15.2 10.1 24.5 10.1s17.9-3.6 24.5-10.1L865 536.5c6.5-6.5 10.1-15.2 10.1-24.5 0-9.2-3.6-17.9-10.1-24.5L536.5 159c-6.6-6.6-15.3-10.2-24.5-10.2z" p-id="44244" fill="#8a8a8a"></path><path d="M348 472h329v80H348z" p-id="44245" fill="#8a8a8a"></path><path d="M472 671V347h80v324z" p-id="44246" fill="#8a8a8a"></path></svg>