<?xml version="1.0" standalone="no"?><!DOCTYPE svg PUBLIC "-//W3C//DTD SVG 1.1//EN" "http://www.w3.org/Graphics/SVG/1.1/DTD/svg11.dtd"><svg t="1637855653887" class="icon" viewBox="0 0 1024 1024" version="1.1" xmlns="http://www.w3.org/2000/svg" p-id="24606" xmlns:xlink="http://www.w3.org/1999/xlink" width="200" height="200"><defs><style type="text/css"></style></defs><path d="M704 453.5V384c0-35.2-28.8-64-64-64h-16.4L576 227.3V136c0-39.6-28.8-72-64-72s-64 32.4-64 72v91.3L400.4 320H384c-35.2 0-64 28.8-64 64v69.5c-37.2 13.3-64 48.9-64 90.5v320c0 52.8 43.2 96 96 96h320c52.8 0 96-43.2 96-96V544c0-41.6-26.8-77.2-64-90.5zM476.5 241.9l3.5-6.9v-99c0-21.7 14.7-40 32-40s32 18.3 32 40v99l3.5 6.9 40.1 78.1H436.4l40.1-78.1zM352 384c0-8.5 3.3-16.5 9.4-22.6 6.1-6.1 14.1-9.4 22.6-9.4h256c8.5 0 16.5 3.3 22.6 9.4 6.1 6.1 9.4 14.1 9.4 22.6v64h-48v-64h-32v64h-32v-64h-32v64h-32v-64h-32v64h-32v-64h-32v64h-48v-64z m384 480c0 17-6.7 33-18.8 45.2C705 921.3 689 928 672 928H352c-17 0-33-6.7-45.2-18.8C294.7 897 288 881 288 864V544c0-17 6.7-33 18.8-45.2S335 480 352 480h320c17 0 33 6.7 45.2 18.8 8.2 8.2 14 18.3 16.8 29.2h-94v32h96v304zM608 560h-32v-32h32v32z" p-id="24607" fill="#8a8a8a"></path></svg>