<?xml version="1.0" standalone="no"?><!DOCTYPE svg PUBLIC "-//W3C//DTD SVG 1.1//EN" "http://www.w3.org/Graphics/SVG/1.1/DTD/svg11.dtd"><svg t="1637856133502" class="icon" viewBox="0 0 1034 1024" version="1.1" xmlns="http://www.w3.org/2000/svg" p-id="28595" xmlns:xlink="http://www.w3.org/1999/xlink" width="201.953125" height="200"><defs><style type="text/css"></style></defs><path d="M1020.342857 160.914286h-49.005714c-120.685714 0-218.697143 98.011429-218.697143 218.697143v193.828571H404.48l147.017143-327.68c1.462857-2.925714 1.462857-5.851429 0-8.045714-0.731429-2.925714-2.925714-5.12-5.851429-5.851429C495.908571 208.457143 442.514286 197.485714 386.925714 197.485714 174.08 197.485714 0 370.834286 0 583.68c0 108.251429 44.617143 205.531429 115.565714 275.748571h-0.731428c-45.348571 0-81.92 36.571429-81.92 81.92s36.571429 81.92 81.92 81.92 81.92-36.571429 81.92-81.92c0-8.045714-1.462857-15.36-2.925715-22.674285 57.051429 32.914286 122.88 51.931429 193.828572 51.931428 70.217143 0 136.777143-19.017143 193.828571-51.931428-2.194286 7.314286-2.925714 14.628571-2.925714 22.674285 0 45.348571 36.571429 81.92 81.92 81.92s81.92-36.571429 81.92-81.92-36.571429-81.92-81.92-81.92h-0.731429c71.68-70.217143 115.565714-168.228571 115.565715-275.748571v-204.8c0-108.982857 88.502857-196.754286 196.754285-196.754286h49.005715c5.851429 0 10.971429-5.12 10.971428-10.971428s-5.851429-10.24-11.702857-10.24zM114.834286 1002.057143c-32.914286 0-59.977143-27.062857-59.977143-59.977143s27.062857-59.977143 59.977143-59.977143 59.977143 27.062857 59.977143 59.977143-27.062857 59.977143-59.977143 59.977143z m604.16-59.977143c0 32.914286-27.062857 59.977143-59.977143 59.977143s-59.977143-27.062857-59.977143-59.977143 27.062857-59.977143 59.977143-59.977143 59.977143 27.062857 59.977143 59.977143zM386.925714 219.428571c48.274286 0 95.085714 9.508571 139.702857 27.794286l-146.285714 326.217143h-358.4C27.794286 376.685714 189.44 219.428571 386.925714 219.428571z m0 729.965715c-197.485714 0-359.131429-157.988571-364.982857-354.011429h729.965714c-5.12 196.022857-166.765714 354.011429-364.982857 354.011429z" p-id="28596" fill="#8a8a8a"></path></svg>