<?xml version="1.0" standalone="no"?><!DOCTYPE svg PUBLIC "-//W3C//DTD SVG 1.1//EN" "http://www.w3.org/Graphics/SVG/1.1/DTD/svg11.dtd"><svg t="1637855842680" class="icon" viewBox="0 0 1024 1024" version="1.1" xmlns="http://www.w3.org/2000/svg" p-id="27251" xmlns:xlink="http://www.w3.org/1999/xlink" width="200" height="200"><defs><style type="text/css"></style></defs><path d="M514.048 763.904c-118.784 0-217.088-43.008-286.72-124.928-6.144-6.144-4.096-16.384 2.048-22.528 6.144-6.144 16.384-4.096 22.528 2.048 63.488 75.776 153.6 114.688 262.144 114.688 110.592 0 208.896-38.912 290.816-114.688 6.144-6.144 16.384-6.144 22.528 0 6.144 6.144 6.144 16.384 0 22.528-90.112 81.92-194.56 122.88-313.344 122.88z" fill="#8a8a8a" p-id="27252"></path><path d="M327.68 688.128l-26.624-16.384c34.816-53.248 55.296-98.304 61.44-133.12 2.048-12.288 6.144-24.576 8.192-34.816 4.096-14.336 8.192-34.816 8.192-40.96-12.288 0-18.432 4.096-30.72 14.336-10.24 8.192-22.528 18.432-40.96 28.672-24.576 14.336-53.248 8.192-73.728-12.288-24.576-22.528-28.672-53.248-16.384-73.728 34.816-55.296 59.392-94.208 77.824-116.736 18.432-26.624 47.104-53.248 88.064-36.864 18.432 6.144 43.008 38.912 83.968 90.112 22.528 28.672 47.104 59.392 59.392 67.584 14.336 10.24 38.912 10.24 69.632 0l73.728-67.584c12.288-10.24 32.768-14.336 49.152-8.192 12.288 4.096 34.816 16.384 43.008 51.2 8.192 36.864-14.336 57.344-30.72 73.728-10.24 8.192-18.432 16.384-22.528 28.672-4.096 8.192-6.144 43.008 61.44 174.08l-26.624 14.336c-71.68-139.264-71.68-180.224-63.488-198.656 6.144-16.384 20.48-28.672 30.72-38.912 16.384-16.384 26.624-24.576 22.528-45.056-4.096-14.336-10.24-24.576-22.528-28.672-10.24-2.048-18.432 0-20.48 2.048l-77.824 71.68-2.048-2.048c-43.008 16.384-77.824 14.336-100.352-2.048-14.336-10.24-38.912-38.912-65.536-73.728-24.576-30.72-59.392-75.776-71.68-79.872-16.384-6.144-30.72-4.096-53.248 26.624-16.384 22.528-40.96 61.44-75.776 114.688-6.144 8.192-2.048 24.576 10.24 34.816 6.144 6.144 18.432 16.384 36.864 6.144 16.384-6.144 26.624-16.384 36.864-22.528 14.336-12.288 28.672-22.528 51.2-22.528 14.336 0 20.48 6.144 24.576 10.24 12.288 14.336 6.144 36.864-2.048 69.632-2.048 10.24-6.144 20.48-8.192 32.768-8.192 38.912-30.72 86.016-65.536 143.36z" fill="#8a8a8a" p-id="27253"></path><path d="M409.6 729.088l-26.624-12.288c32.768-81.92 81.92-122.88 147.456-122.88 63.488 0 120.832 36.864 167.936 110.592l-26.624 16.384c-40.96-65.536-88.064-96.256-141.312-96.256-53.248 0-92.16 34.816-120.832 104.448zM604.16 542.72h-6.144c-38.912-14.336-73.728-14.336-112.64 0-8.192 2.048-16.384-2.048-20.48-10.24-2.048-8.192 2.048-16.384 10.24-20.48 45.056-16.384 88.064-16.384 133.12 0 8.192 2.048 12.288 12.288 10.24 20.48-2.048 6.144-8.192 10.24-14.336 10.24z" fill="#8a8a8a" p-id="27254"></path></svg>