<?xml version="1.0" standalone="no"?><!DOCTYPE svg PUBLIC "-//W3C//DTD SVG 1.1//EN" "http://www.w3.org/Graphics/SVG/1.1/DTD/svg11.dtd"><svg t="1637856321018" class="icon" viewBox="0 0 1024 1024" version="1.1" xmlns="http://www.w3.org/2000/svg" p-id="32668" xmlns:xlink="http://www.w3.org/1999/xlink" width="200" height="200"><defs><style type="text/css"></style></defs><path d="M945 484.1H81c-8.3 0-15 6.7-15 15v23.8c0 8.3 6.7 15 15 15h864c8.3 0 15-6.7 15-15v-23.8c0-8.3-6.7-15-15-15z" fill="#8a8a8a" p-id="32669"></path><path d="M388.2 799.6h-80.5c-27.6 0-50-22.4-50-50v-466c0-27.6 22.4-50 50-50h80.5c27.6 0 50 22.4 50 50v466c0 27.6-22.3 50-50 50z m-55.5-50h30.5c13.8 0 25-11.2 25-25v-416c0-13.8-11.2-25-25-25h-30.5c-13.8 0-25 11.2-25 25v416c0 13.8 11.2 25 25 25z" fill="#8a8a8a" p-id="32670"></path><path d="M257.7 717.7h-79c-27.6 0-50-19.8-50-44.2V358.2c0-24.4 22.4-44.2 50-44.2h79c27.6 0 50 19.8 50 44.2v315.2c0 24.5-22.3 44.3-50 44.3z m-53.9-44.2h29c13.8 0 25-9.9 25-22.1v-271c0-12.2-11.2-22.1-25-22.1h-29c-13.8 0-25 9.9-25 22.1v271c0 12.2 11.1 22.1 25 22.1zM587.4 749.6v-466c0-27.6 22.4-50 50-50h80.5c27.6 0 50 22.4 50 50v466c0 27.6-22.4 50-50 50h-80.5c-27.6 0-50-22.4-50-50z m130.5-25v-416c0-13.8-11.2-25-25-25h-30.5c-13.8 0-25 11.2-25 25v416c0 13.8 11.2 25 25 25h30.5c13.8 0 25-11.2 25-25z" fill="#8a8a8a" p-id="32671"></path><path d="M717.9 673.5V358.2c0-24.4 22.4-44.2 50-44.2h79c27.6 0 50 19.8 50 44.2v315.2c0 24.4-22.4 44.2-50 44.2h-79c-27.6 0.1-50-19.7-50-44.1z m129-22.1v-271c0-12.2-11.2-22.1-25-22.1h-29c-13.8 0-25 9.9-25 22.1v271c0 12.2 11.2 22.1 25 22.1h29c13.8 0 25-9.9 25-22.1z" fill="#8a8a8a" p-id="32672"></path></svg>