<?xml version="1.0" standalone="no"?><!DOCTYPE svg PUBLIC "-//W3C//DTD SVG 1.1//EN" "http://www.w3.org/Graphics/SVG/1.1/DTD/svg11.dtd"><svg t="1637856374103" class="icon" viewBox="0 0 1024 1024" version="1.1" xmlns="http://www.w3.org/2000/svg" p-id="34920" xmlns:xlink="http://www.w3.org/1999/xlink" width="200" height="200"><defs><style type="text/css"></style></defs><path d="M910.933333 281.386667l-154.88-156.8a238.933333 238.933333 0 0 0-341.333333 0 241.493333 241.493333 0 0 0-42.666667 57.386666 126.293333 126.293333 0 0 0-157.013333 18.56l-49.066667 49.493334A289.92 289.92 0 0 0 128 604.373333l-52.693333 53.333334a110.933333 110.933333 0 0 0 0 155.306666L198.613333 938.666667a108.373333 108.373333 0 0 0 154.453334 0l61.866666-64a281.386667 281.386667 0 0 0 108.8 21.333333A281.173333 281.173333 0 0 0 725.333333 813.013333l62.08-62.72A109.653333 109.653333 0 0 0 817.92 682.666667a238.933333 238.933333 0 0 0 93.226667-58.24 245.12 245.12 0 0 0-0.213334-343.04zM322.56 908.373333a67.2 67.2 0 0 1-93.653333 0L104.96 782.933333a68.053333 68.053333 0 0 1 0-95.36L151.68 640l218.026667 220.586667z m434.133333-188.16l-62.08 62.72a239.786667 239.786667 0 0 1-341.333333 0l-155.306667-156.8a247.04 247.04 0 0 1 0-346.24l49.066667-49.493333a85.333333 85.333333 0 0 1 119.68 0l110.933333 112.213333a68.053333 68.053333 0 0 1 0 95.36 64 64 0 0 1-32.213333 17.28 66.773333 66.773333 0 0 1-61.44-17.066666l-62.08-62.72a21.333333 21.333333 0 1 0-30.293333 29.866666l62.08 62.72a102.613333 102.613333 0 0 0 92.373333 30.72l124.586667 125.866667a237.653333 237.653333 0 0 0 170.666666 71.253333 240.853333 240.853333 0 0 0 31.573334-2.346666 65.493333 65.493333 0 0 1-16.213334 26.666666z m-15.786666-66.773333a195.413333 195.413333 0 0 1-139.733334-58.666667L490.666667 482.56a109.866667 109.866667 0 0 0 17.92-170.666667l-101.546667-101.12a198.826667 198.826667 0 0 1 38.826667-56.106666 196.266667 196.266667 0 0 1 279.466666 0l155.093334 156.8a202.24 202.24 0 0 1 0 283.52 195.413333 195.413333 0 0 1-139.52 58.453333z" p-id="34921" fill="#8a8a8a"></path></svg>