<?xml version="1.0" standalone="no"?><!DOCTYPE svg PUBLIC "-//W3C//DTD SVG 1.1//EN" "http://www.w3.org/Graphics/SVG/1.1/DTD/svg11.dtd"><svg t="1637856345727" class="icon" viewBox="0 0 1024 1024" version="1.1" xmlns="http://www.w3.org/2000/svg" p-id="34036" xmlns:xlink="http://www.w3.org/1999/xlink" width="200" height="200"><defs><style type="text/css"></style></defs><path d="M430.729509 1.290008a46.726949 46.726949 0 0 0-17.916775 4.463836c-11.753404 5.590034-22.626327 15.521046-33.908777 30.714472-7.821952 10.545302-31.103521 44.290268-54.38509 79.345717-11.651023 17.548201-22.790138 35.157832-32.00448 49.921255-9.214341 14.742946-15.357236 24.714911-19.186306 34.543542-6.040513 15.398188-3.214781 30.38685 1.269531 42.242636 4.504789 11.855786 10.44292 21.909656 14.72247 30.079706 33.847347 64.909916 92.94199 141.511808 99.822032 150.357575v163.810515c0 43.38931-0.634766 145.197544-0.634765 186.846367 0 8.579576 1.781439 19.677738 3.82907 35.198784 2.047631 15.521046 4.627647 34.543542 7.678618 53.750325 6.142894 38.434042 13.268652 78.035234 17.916775 97.262493 5.733368 23.691096 14.394849 39.990242 26.250635 50.55602 11.83531 10.545302 26.496351 13.432462 36.44784 13.432462 16.094383 0 31.881621-11.05721 39.048331-25.595393 7.16671-14.538183 9.378152-31.758763 8.968625-53.115559-0.675718-33.233058-4.709552-74.267592-8.333859-110.060189-0.430003-4.340979-0.204763-4.750505-0.634766-8.948149 7.658142 10.791018 21.643464 16.176288 35.198784 15.992001 13.862465-0.204763 28.748745-4.996221 46.071707-14.087704 17.097722-8.948149 42.508828-27.663501 71.011858-49.266012A5296.812974 5296.812974 0 0 0 751.982403 716.670999c8.10862-6.409086 17.957728-16.258194 23.035854-32.004479 5.05765-15.725809 1.863345-38.126897-13.452939-55.019856-51.805075-57.251775-112.763063-91.303885-127.976964-99.822032 0.286668-51.395549 1.801916-78.178568 1.924774-103.016337 3.808594-5.938131 52.296507-80.512868 83.195264-147.183747 7.494331-16.176288 13.104841-29.60875 15.992002-43.512168a65.217061 65.217061 0 0 0-5.119079-42.22216c-14.681517-29.342558-72.076626-136.16749-85.754804-158.05667a20.476314 20.476314 0 0 0-0.614289 0c-6.552421-10.44292-14.824852-20.55822-26.250635-27.520166a50.433162 50.433162 0 0 0-19.841549-7.043853 42.979784 42.979784 0 0 0-23.035853 3.214782c-21.950609 9.89006-27.786358 36.38641-14.067228 65.258013 4.033834 8.518147 19.94393 39.150713 36.468316 72.957108 8.251955 16.892959 16.544862 33.581155 22.401087 47.341239 2.928113 6.880042 4.914315 12.859125 6.388611 17.282009 0.900958 2.661921 1.023816 5.385271 1.290007 6.409086-0.204763 0.860005-0.225239 1.883821-0.655242 3.194305-1.16715 3.706213-2.72335 8.907197-5.119078 14.72247-3.030495 7.371473-7.780999 16.708672-12.142455 25.595393 3.399068-10.156252 5.753844-20.742506 5.753845-32.004479 0-56.309864-46.071707-102.381571-102.381572-102.381571s-102.381571 46.071707-102.381571 102.381571 46.071707 102.381571 102.381571 102.381571c33.437821 0 63.189906-16.606291 81.905257-41.587394-4.607171 8.763863-9.296247 18.142014-13.432462 24.960627-3.235258 5.323842-6.081465 9.726249-8.33386 12.77722-0.655242 0.921434-1.290008 1.290008-1.904297 1.924774-1.638105 0.020476-7.576236 1.72001-15.357236 1.924773-11.343878 0.286668-26.373493 0-42.877402 0-16.27867 0-32.803055-0.040953-45.436941-0.634766a126.031714 126.031714 0 0 1-14.701994-1.290007c-0.798576-0.143334-0.839529-0.409526-1.290007-0.634766-5.323842-6.368134-16.135336-23.711572-26.230159-42.242636-10.954828-20.107741-21.50013-40.481673-30.079706-53.729849-3.255734-5.037173-3.747166-7.453378-3.849547-8.33386-0.081905-0.860005-0.450479-1.760963 1.290008-5.753844 0.900958-2.088584 6.961947-13.227699 14.087704-26.230159 7.105281-13.00246 16.155812-29.096843 24.940151-44.802175 8.804815-15.684857 17.507249-31.205903 24.325861-43.512168 6.818613-12.285789 10.422444-18.305825 13.432463-25.595393 6.040513-14.538183 3.562879-26.72159 0.634765-38.393089-1.453818-5.815273-2.989542-11.405307-5.753844-16.626767-2.764302-5.22146-5.385271-11.589594-15.992002-15.992002a39.314523 39.314523 0 0 0-16.647243-2.580016z m165.100522 42.22216c3.849547 2.3343 8.968626 7.985763 12.797696 14.087704 8.477194 13.55532 71.523766 128.38649 84.464796 154.186646 2.661921 5.323842 2.846208 8.477194 1.269532 16.012478-1.5562 7.535284-5.61051 19.042972-12.797697 34.564019-29.936371 64.643724-83.809554 147.798036-83.809554 147.798036a20.476314 20.476314 0 0 0-3.214781 11.528165c0 27.315403-1.904297 51.231738-1.904297 119.008338a20.476314 20.476314 0 0 0 10.852446 17.916775s75.250455 40.993581 127.362675 98.552501c7.228139 7.985763 6.511468 10.340539 5.119078 14.701994-1.433342 4.381931-6.675278 10.483873-9.623867 12.818172-21.070127 16.626767-51.272691 40.174529-79.325242 61.428943-28.052551 21.233938-55.490812 40.952629-65.27849 46.071707-13.207223 6.920994-22.380611 8.784339-26.864924 8.94815-0.286668-1.412866-0.921434-2.580016-0.655242-4.484313 0.819053-5.385271 3.480973-11.077686 4.504789-12.142455 14.763423-15.930572 72.363295-71.05281 85.734328-83.195264v-0.634766c3.317163-3.030495 6.839089-6.245276 9.582915-10.893399 2.866684-4.791458 5.119079-12.142454 3.214781-19.821073a29.342558 29.342558 0 0 0-10.238157-16.012477c-3.870023-3.010018-7.617189-4.525265-11.528165-6.38861-35.956408-17.077246-115.814033-51.190786-115.814033-51.190786a20.476314 20.476314 0 0 0-28.154932 15.992001s-4.811934 29.137795-9.603392 62.084185c-4.791458 32.925913-9.726249 67.899458-9.582915 87.638625 0.081905 14.210562 4.095263 41.321202 7.678618 76.786179 3.562879 35.485453 7.064328 76.765702 7.678618 107.50065 0.348097 17.83487-2.293347 29.485893-4.504789 33.929252-2.190966 4.463837 0.163811 2.559539-2.539063 2.55954-3.194305 0-5.323842 0.040953-8.968626-3.194305-3.624308-3.235258-9.623868-11.671499-14.067228-30.079706-3.788118-15.602951-11.261973-55.531764-17.282009-93.433422-3.010018-18.940591-5.692415-37.471655-7.678618-52.460317a441.960767 441.960767 0 0 1-3.194305-30.079706c0-41.403107 0.634766-143.231818 0.634766-186.846367v-170.83389a20.476314 20.476314 0 0 0-4.484313-12.797697s-67.38755-86.901478-99.822032-149.10852c-4.996221-9.582915-10.115299-18.531064-12.797696-25.595393-2.661921-7.064328-2.846208-11.05721-1.924774-13.432462 0.286668-0.716671 7.16671-13.309604 16.012478-27.520167 8.845768-14.210562 20.476314-31.94305 31.984003-49.266012 23.015377-34.6664 47.382191-69.72185 53.115559-77.420944 7.862905-10.586254 13.330081-14.087704 16.647243-15.992001 0.163811 0.55286 0.470955 0.675718 0.61429 1.269531 1.597153 6.286228 0.696195 14.865804 1.290008 13.432462 0.860005-2.047631-4.791458 9.009578-11.507689 21.11108-6.736707 12.142454-15.50057 27.806835-24.325861 43.532644-8.804815 15.705333-17.691536 31.533524-24.940151 44.7817a408.174849 408.174849 0 0 0-15.357236 30.079705c-3.358116 7.678618-6.122418 16.688196-5.119078 26.230159 0.982863 9.541962 4.996221 18.142014 10.238157 26.230158 5.876702 9.11196 16.811054 30.427803 28.154932 51.190786 11.22102 20.619648 22.523946 39.662621 35.83355 53.115559v0.634766c7.71957 7.494331 14.251515 8.436241 20.476314 9.603391 6.347657 1.187626 13.145794 1.576676 20.476314 1.924774 14.640565 0.696195 31.410666 0.634766 47.341239 0.634766 15.705333 0 30.939711 0.327621 44.146934 0 13.207223-0.327621 23.404427 1.269531 37.123557-8.313384 6.142894-4.300026 8.190526-7.617189 11.507689-12.162931 3.337639-4.545742 7.248615-9.992441 10.893399-15.992001 7.269092-11.99912 14.824852-26.619209 22.380612-41.607871 7.576236-14.968186 15.11152-29.813514 20.476314-42.856925 2.682397-6.531944 4.709552-12.511028 6.409086-17.916775 1.699534-5.426223 3.194305-9.50101 3.194305-16.647244 0-7.985763-1.801916-12.490552-3.849547-18.55154-2.047631-6.060989-4.504789-13.00246-7.658141-20.476315-6.347657-14.947709-14.620088-32.024956-23.05633-49.266012-16.852007-34.50259-35.424024-70.1109-36.44784-72.322342-2.580016-5.405747-1.597153-6.961947-1.290007-8.948149zM512 163.810514c34.174969 0 61.428943 27.253974 61.428943 61.428943s-27.253974 61.428943-61.428943 61.428943-61.428943-27.253974-61.428943-61.428943 27.253974-61.428943 61.428943-61.428943z m16.647243 481.193385c19.923454 8.456718 50.883641 21.520606 79.345718 34.564019-20.16917 18.735828-62.207043 58.971785-78.710952 76.786178-8.518147 9.132436-11.466736 19.821072-13.452938 30.05923-0.655242-7.064328-2.539063-23.302046-2.55954-24.940151-0.061429-10.913876 4.893839-48.815533 9.623868-81.290968 2.682397-18.61297 3.910976-23.752525 5.733368-35.178308z" fill="#8a8a8a" p-id="34037"></path></svg>