<?xml version="1.0" standalone="no"?><!DOCTYPE svg PUBLIC "-//W3C//DTD SVG 1.1//EN" "http://www.w3.org/Graphics/SVG/1.1/DTD/svg11.dtd"><svg t="1637856293969" class="icon" viewBox="0 0 1024 1024" version="1.1" xmlns="http://www.w3.org/2000/svg" p-id="31707" xmlns:xlink="http://www.w3.org/1999/xlink" width="200" height="200"><defs><style type="text/css"></style></defs><path d="M367.300257 882.122749H90.319735v-56.449835h276.227858c6.021316 0 12.418964 1.505329 19.945608 4.515987 9.408306 3.763322 14.676957 12.418964 14.676957 23.708931 0 13.54796-7.526645 19.945608-13.924293 22.956266-7.150312 3.763322-13.924293 5.268651-19.945608 5.268651z m-261.927232-15.053289h262.303564c3.763322 0 8.279309-1.128997 13.547961-3.763323 2.634326-1.128997 5.268651-3.38699 5.268651-9.408305 0-6.77398-2.634326-8.655641-5.268651-9.784638-5.644983-2.257993-10.537302-3.38699-14.300625-3.38699H105.373025v26.343256zM899.810364 801.211319H127.576626c-16.182286 0-27.095921-3.010658-33.117236-9.408305-5.644983-6.021316-9.031974-12.795296-10.537303-21.074605-1.505329-7.902977-0.376332-17.311283 3.763323-28.224918L221.659684 266.819552l-60.213157-49.299523c-6.77398-5.268651-12.042631-11.666299-15.429621-18.440279-3.38699-5.644983-5.644983-12.042631-6.397648-19.192944-0.752664-8.279309 2.257993-16.182286 9.031973-23.70893 6.397648-7.902977 13.54796-12.418964 21.450937-13.547961 7.150312-1.128997 14.300625-0.376332 20.698273 1.505329h0.376332c6.397648 2.634326 13.171628 6.397648 19.569276 10.913635l0.376332 0.376332 171.231165 145.264241h245.368615c6.397648 0 12.795296 1.505329 18.440279 4.139655 4.892319 2.257993 9.408306 5.268651 13.547961 9.031973 4.892319 4.892319 7.150312 11.289967 7.150312 19.192944 0 8.655641-2.257993 15.053289-6.397648 19.945608-3.763322 3.763322-7.526645 7.150312-12.042631 9.408306-5.268651 3.010658-10.913635 4.515987-16.934951 4.515987H339.451672L274.346196 313.108416l-77.900772 287.517824c6.021316 1.881661 12.418964 4.515987 18.44028 7.526645 7.526645 3.763322 16.182286 9.408306 24.837927 16.558618 8.655641 7.150312 17.311283 16.182286 25.590592 27.095921 7.526645 10.913635 13.54796 21.450937 17.311282 31.235575 3.763322 9.784638 6.397648 18.440279 7.526645 26.343256 1.128997 6.021316 1.881661 12.042631 2.257993 18.063947h604.013231c7.526645 0 14.676957 1.505329 21.074605 4.139655 5.644983 2.257993 10.913635 5.644983 15.429621 10.16097 5.268651 5.268651 7.902977 12.795296 7.902977 21.827269 0 9.784638-2.634326 17.311283-7.526645 22.579934-4.139655 4.515987-9.031974 7.902977-13.924292 10.16097-6.021316 3.38699-12.418964 4.892319-19.569276 4.892319zM177.628813 156.93054c-1.505329 0-3.010658 0-4.892319 0.376332-4.139655 0.752664-8.279309 3.38699-12.418964 8.655642-4.139655 4.515987-6.021316 8.655641-5.644983 12.418963 0.376332 4.892319 1.881661 9.031974 4.139654 13.171628l0.376333 0.752665c2.634326 4.892319 6.397648 9.784638 11.666299 13.54796l68.116134 55.320838-136.984932 486.221242c-3.010658 8.279309-4.139655 15.053289-3.386991 20.321941 1.128997 5.268651 3.010658 9.408306 6.773981 13.171628 1.505329 1.505329 6.397648 4.892319 22.203601 4.892319h772.233738c4.892319 0 9.031974-0.752664 12.795296-2.634326h0.376332c3.38699-1.505329 6.397648-3.763322 9.031973-6.77398 2.257993-2.634326 3.38699-6.77398 3.386991-12.418963 0-5.268651-1.128997-9.031974-3.763323-11.289967-3.010658-3.010658-6.397648-5.268651-10.537302-6.773981h-0.376332c-4.515987-1.881661-9.408306-3.010658-15.05329-3.010657H276.227857l0.752665-8.279309c0.376332-7.150312 0-14.676957-1.505329-22.203602-1.128997-7.150312-3.38699-15.053289-6.77398-23.708931s-8.655641-18.063947-15.429622-27.848585c-7.150312-9.408306-15.053289-17.687615-22.956266-24.085262-7.902977-6.397648-15.429621-11.666299-22.203601-15.05329-7.902977-3.763322-15.429621-6.77398-22.579934-8.279309l-7.526645-1.881661 88.061742-324.774715 79.029769 65.105476h286.76516c3.38699 0 6.77398-0.752664 9.784638-2.634326l0.376332-0.376332c2.634326-1.505329 5.268651-3.38699 7.902977-6.021316 2.257993-2.257993 2.634326-6.77398 2.634325-9.784638 0-4.139655-0.752664-6.77398-2.634325-8.655641-2.634326-2.634326-5.644983-4.515987-9.031974-6.021316h-0.376332c-3.763322-1.881661-7.526645-2.634326-12.042632-2.634325h-251.013598L202.090408 167.09151c-5.268651-3.763322-10.913635-6.77398-16.182286-8.655641-2.634326-1.128997-5.268651-1.505329-8.279309-1.505329z" fill="#8a8a8a" p-id="31708"></path></svg>