<?xml version="1.0" standalone="no"?><!DOCTYPE svg PUBLIC "-//W3C//DTD SVG 1.1//EN" "http://www.w3.org/Graphics/SVG/1.1/DTD/svg11.dtd"><svg t="1637856409512" class="icon" viewBox="0 0 1024 1024" version="1.1" xmlns="http://www.w3.org/2000/svg" p-id="35652" xmlns:xlink="http://www.w3.org/1999/xlink" width="200" height="200"><defs><style type="text/css"></style></defs><path d="M297.9 190.1c-2.5 0-4.9-0.9-6.7-2.8-3.7-3.7-3.6-9.7 0.1-13.4l57.8-56.7c3.7-3.7 9.7-3.6 13.4 0.1 3.7 3.7 3.6 9.7-0.1 13.4l-57.8 56.7c-1.9 1.8-4.3 2.7-6.7 2.7zM312.4 111.4c-2.5 0-4.9-0.9-6.7-2.8-3.7-3.7-3.6-9.7 0.1-13.4l28.9-28.3c3.7-3.7 9.7-3.6 13.4 0.1 3.7 3.7 3.6 9.7-0.1 13.4l-29 28.3c-1.8 1.8-4.2 2.7-6.6 2.7zM714 873.3c-3.7 0-7.3-2.2-8.8-5.9-1.9-4.8 0.4-10.3 5.2-12.3l68.4-27.5c4.8-1.9 10.3 0.4 12.3 5.2 1.9 4.8-0.4 10.3-5.2 12.3l-68.4 27.5c-1.1 0.5-2.3 0.7-3.5 0.7zM768.9 810.7c-3.7 0-7.3-2.2-8.8-5.9-1.9-4.8 0.4-10.3 5.2-12.3l27.1-10.9c4.8-1.9 10.3 0.4 12.3 5.2 1.9 4.8-0.4 10.3-5.2 12.3L772.4 810c-1.1 0.5-2.3 0.7-3.5 0.7z" fill="#8a8a8a" p-id="35653"></path><path d="M282 766.4l-0.2-4.8c-0.2-4.7-5.6-116 0.5-227.4-14-8.9-25.8-19.4-35.3-31.4-21.6-27.3-31-61.6-27.9-102.2 5.1-66.3 36-120.2 89.5-156 37.9-25.3 74.1-32.9 78.5-33.7 4.5-1 41.5-9 90.4-6.7 30.1 1.4 58.5 6.4 84.3 14.9 32.8 10.8 61.7 27.2 85.8 48.8 45.5 40.8 78.5 86.6 98 135.9 13.9 35.2 21 72.3 21 110.4 0 28.1-7 69.9-18.6 111.9-7.3 26.5-22.9 75.8-44.9 107.9l-3.1 4.5-26.1-24.1 2.3-3.4c29.9-43.8 56.5-146.6 56.5-196.8 0-32.7-6.1-64.7-18.1-95-17.3-43.7-47-84.7-88.3-121.7-90.7-81.3-231.3-49.8-232.7-49.5l-0.7 0.2c-0.3 0.1-33.8 6.6-67.6 29.4-44 29.7-68.4 72.2-72.6 126.4-2.3 30.2 4.1 54.4 19.5 73.9 3.8 4.8 8.1 9.3 13 13.5 1.3-14.7 2.7-28.6 4.3-41.6 7.9-62.6 29.1-107 63-132 31.9-23.5 64.6-21.8 77.2-19.9 19.2 2.8 46.7 20.1 65 52.3 13.3 23.5 26.4 63.1 12.7 118.2-13.3 53.6-41.4 77.6-62.6 88.4-21.2 10.7-40 10.4-43.9 10.2-5.2 0-44.8-0.6-85.6-16.2-4.9 105.7 0.1 207.8 0.2 208.9l0.2 4.6-33.7 2.1z m9.5-227.3c-5.1 97.8-1.5 194.5-0.5 217.2l14.9-1c-0.9-21.5-4.3-114 0.2-208.5v-0.3l-14.6-7.4z m394.8 173.8l12.1 11.1c19.6-31 33.7-75.8 40.5-100.5 11.4-41.2 18.3-82.1 18.3-109.4 0-36.8-6.8-72.8-20.3-106.9-18.9-47.9-51.1-92.5-95.5-132.3-23.1-20.7-50.9-36.5-82.4-46.9-25.1-8.2-52.6-13.1-81.8-14.5-48-2.2-84 5.6-88 6.5h-0.2c-3.8 0.7-38.6 7.9-75.1 32.3-51 34.1-80.5 85.6-85.3 148.9-2.9 38.1 5.8 70.2 25.8 95.6 7.8 9.9 17.4 18.7 28.6 26.4l1.4-20.7c-7.5-5.7-14-12.1-19.5-19-17-21.5-24-47.8-21.5-80.5 4.4-57.2 30.2-102.1 76.7-133.5 34.9-23.5 69.3-30.5 71.1-30.8l0.4-0.1c3.9-0.9 147.3-32.4 241.1 51.7 42.4 38 72.9 80.2 90.7 125.3 12.4 31.4 18.7 64.6 18.7 98.5 0.1 50.4-26 152-55.8 198.8zM315.9 540.6c40.6 16.2 80.7 16.7 85.2 16.7h0.2c3.2 0.2 20 0.5 39.2-9.2 19.4-9.8 45.2-32 57.7-82.2 12.9-52 0.8-89.2-11.7-111.3-16.7-29.5-41.3-45.2-58.2-47.7-11.4-1.7-41.2-3.2-70.2 18.2-31.8 23.4-51.7 65.7-59.2 125.6-1.8 14.6-3.4 30.4-4.8 47l14.4 8.4c1.4-18.8 3.2-36.5 5.2-52.6 6.8-54 24.3-91.8 51.9-112.2 25.2-18.6 51.1-17.2 61.1-15.8 13.2 1.9 33.7 15.2 47.7 39.8 10.5 18.6 20.7 50 9.6 94.7-20.2 81.4-79.6 78.3-82.1 78.1h-0.6c-1.9 0-43.9-0.2-84.3-17.2l-1.1 19.7z m-23.8-11.8l14.6 7.4 1.2-19.5-14.4-8.5-1.4 20.6z m109.9 0.2l0.7 0.1c2.1 0.1 53.9 2.8 72.2-71 10.4-41.7 1-70.7-8.6-87.8-8.7-15.4-26-33-40.8-35.1-8.8-1.3-31.7-2.5-54.1 14-25.5 18.8-41.7 54.4-48.2 105.7-2.2 17.1-4 36.1-5.4 56.4 39.2 17.4 81.3 17.7 83.6 17.7h0.6z" fill="#8a8a8a" p-id="35654"></path><path d="M353.2 948.6l-2.9 0.8c-15.6 4.2-31.9-5.2-36.1-20.8l-37-144.1c-2.8-10.4 3.4-21.2 13.8-24l22-5.9c10.4-2.8 21.2 3.4 24 13.8l37 144.1c4.2 15.7-5.2 31.9-20.8 36.1z" fill="#8a8a8a" p-id="35655"></path><path d="M342.6 959.9c-6.7 0-13.4-1.8-19.4-5.3-9-5.2-15.5-13.6-18.1-23.6v-0.1l-37-144.1c-2-7.4-0.9-15.2 2.9-22 3.9-6.7 10.1-11.5 17.6-13.5l22-5.9c15.4-4.1 31.4 5.1 35.5 20.5v0.1l37 144.1c5.5 20.7-6.8 42-27.5 47.6l-2.9 0.8c-3.4 0.9-6.8 1.4-10.1 1.4z m-19.3-33.7c1.4 5.1 4.7 9.4 9.3 12.1 4.6 2.7 10 3.4 15.2 2l2.9-0.8c10.7-2.9 17-13.8 14.1-24.5v-0.1l-37-144.1c-1.5-5.4-7-8.5-12.4-7.1l-22 5.9c-2.6 0.7-4.8 2.4-6.1 4.7-1.4 2.4-1.7 5.1-1 7.7v0.1l37 144.1z" fill="#8a8a8a" p-id="35656"></path><path d="M351.6 757.7l-94 25.2c-5.9 1.6-12-1.9-13.5-7.8l-3.6-13.5c-1.6-5.9 1.9-12 7.8-13.5l94-25.2c5.9-1.6 12 1.9 13.5 7.8l3.6 13.5c1.6 5.8-1.9 11.9-7.8 13.5z" fill="#8a8a8a" p-id="35657"></path><path d="M254.3 792.9c-8.8 0-16.8-5.9-19.2-14.7l-3.9-14.6c-2.8-10.6 3.5-21.5 14.1-24.4l95.2-25.5c10.6-2.8 21.5 3.5 24.4 14.1l3.9 14.6c2.8 10.6-3.5 21.5-14.1 24.4l-95.2 25.5c-1.7 0.3-3.5 0.6-5.2 0.6z m91.3-61.1h-0.2l-95.2 25.5c-0.5 0.1-0.8 0.7-0.7 1.2l3.9 14.6c0.1 0.5 0.7 0.8 1.2 0.7l95.2-25.5c0.5-0.1 0.8-0.7 0.7-1.2l-3.9-14.6c-0.2-0.4-0.6-0.7-1-0.7z" fill="#8a8a8a" p-id="35658"></path><path d="M585.6 899.5l2.6 1.5c14 8.1 32.1 3.2 40.2-10.8l73-129.6c5.4-9.3 2.2-21.3-7.2-26.7l-19.8-11.4c-9.3-5.4-21.3-2.2-26.7 7.2l-73 129.6c-8 14-3.1 32.1 10.9 40.2z" fill="#8a8a8a" p-id="35659"></path><path d="M602.9 914.4c-6.6 0-13.3-1.7-19.4-5.2l-2.6-1.5c-18.6-10.7-25-34.5-14.3-53.1l73-129.7c3.9-6.7 10.1-11.5 17.6-13.5 7.5-2 15.3-1 22 2.9l19.8 11.4c6.7 3.9 11.5 10.1 13.5 17.6 2 7.5 1 15.3-2.8 22l-73 129.7c-7.3 12.5-20.4 19.4-33.8 19.4zM656 734.3L583 864c-5.5 9.6-2.2 21.8 7.3 27.3l2.6 1.5c9.5 5.5 21.8 2.2 27.3-7.3l73-129.7c1.3-2.3 1.7-5 1-7.7s-2.4-4.8-4.7-6.1l-19.8-11.4c-2.3-1.3-5-1.7-7.7-1-2.5 0.8-4.6 2.4-6 4.7z" fill="#8a8a8a" p-id="35660"></path><path d="M636.5 715.5l84.3 48.7c5.3 3 12.1 1.2 15.1-4l7-12.1c3-5.3 1.2-12.1-4-15.1l-84.3-48.7c-5.3-3-12.1-1.2-15.1 4l-7 12.1c-3.1 5.3-1.3 12.1 4 15.1z" fill="#8a8a8a" p-id="35661"></path><path d="M726.5 775.3c-3.4 0-6.8-0.9-9.9-2.7l-85.3-49.3c-4.6-2.7-7.9-6.9-9.3-12.1a19.5 19.5 0 0 1 2-15.1l7.6-13.1c2.7-4.6 6.9-7.9 12.1-9.3 5.1-1.4 10.5-0.7 15.1 2l85.3 49.3c4.6 2.7 7.9 6.9 9.3 12.1 1.4 5.1 0.7 10.5-2 15.1l-7.6 13.1c-3.8 6.5-10.5 10-17.3 10zM640.7 707l85.3 49.3c0.5 0.3 1.1 0.1 1.4-0.4l7.6-13.1c0.2-0.3 0.1-0.6 0.1-0.7 0-0.2-0.2-0.4-0.4-0.6l-85.3-49.3c-0.3-0.2-0.6-0.1-0.7-0.1-0.2 0.1-0.4 0.2-0.6 0.5l-7.6 13.1c-0.2 0.3-0.1 0.6-0.1 0.7-0.1 0.2 0 0.5 0.3 0.6z" fill="#8a8a8a" p-id="35662"></path></svg>