<?xml version="1.0" standalone="no"?><!DOCTYPE svg PUBLIC "-//W3C//DTD SVG 1.1//EN" "http://www.w3.org/Graphics/SVG/1.1/DTD/svg11.dtd"><svg t="1637855005526" class="icon" viewBox="0 0 1024 1024" version="1.1" xmlns="http://www.w3.org/2000/svg" p-id="23595" xmlns:xlink="http://www.w3.org/1999/xlink" width="200" height="200"><defs><style type="text/css"></style></defs><path d="M971.3008 831.2H57.1424v-638.4h914.16v638.4z m-888.5584-25.6h862.96v-587.2H82.7424v587.2z" fill="#8a8a8a" p-id="23596"></path><path d="M758.8928 724.3328H173.7968V299.6672h585.096v424.6656z m-559.496-25.6h533.896V325.2672H199.3968v373.4656z" fill="#8a8a8a" p-id="23597"></path><path d="M746.3696 604.0448h-13.0784V419.9536h13.0784c14.952 0 44.0512 11.5952 44.0512 32.8496v118.392c0.0016 21.2544-29.0992 32.8496-44.0512 32.8496z m12.5232-154.8112v125.5328c2.7808-1.4256 5.0416-3.032 5.9296-4.3552v-116.8224c-0.888-1.3248-3.1488-2.9296-5.9296-4.3552zM841.12 395.728c-14.5872 0-26.456-11.8688-26.456-26.4576s11.8688-26.4576 26.456-26.4576c14.5888 0 26.4576 11.8688 26.4576 26.4576s-11.8688 26.4576-26.4576 26.4576z m0-33.7152c-4.0016 0-7.256 3.256-7.256 7.2576s3.2544 7.2576 7.256 7.2576 7.2576-3.256 7.2576-7.2576-3.256-7.2576-7.2576-7.2576zM898.3104 395.728c-14.5888 0-26.4576-11.8688-26.4576-26.4576s11.8688-26.4576 26.4576-26.4576c14.5872 0 26.456 11.8688 26.456 26.4576s-11.8672 26.4576-26.456 26.4576z m0-33.7152c-4.0016 0-7.2576 3.256-7.2576 7.2576s3.256 7.2576 7.2576 7.2576 7.256-3.256 7.256-7.2576-3.2544-7.2576-7.256-7.2576zM841.12 468.4816c-14.5872 0-26.456-11.8688-26.456-26.4576s11.8688-26.4576 26.456-26.4576c14.5888 0 26.4576 11.8688 26.4576 26.4576s-11.8688 26.4576-26.4576 26.4576z m0-33.7136c-4.0016 0-7.256 3.256-7.256 7.2576s3.2544 7.2576 7.256 7.2576 7.2576-3.256 7.2576-7.2576-3.256-7.2576-7.2576-7.2576zM898.3104 468.4816c-14.5888 0-26.4576-11.8688-26.4576-26.4576s11.8688-26.4576 26.4576-26.4576c14.5872 0 26.456 11.8688 26.456 26.4576s-11.8672 26.4576-26.456 26.4576z m0-33.7136c-4.0016 0-7.2576 3.256-7.2576 7.2576s3.256 7.2576 7.2576 7.2576 7.256-3.256 7.256-7.2576-3.2544-7.2576-7.256-7.2576z" fill="#8a8a8a" p-id="23598"></path><path d="M870.224 686.9008c-32.4 0-58.76-26.36-58.76-58.7616 0-32.4 26.36-58.76 58.76-58.76 32.4016 0 58.7616 26.36 58.7616 58.76-0.0016 32.4032-26.36 58.7616-58.7616 58.7616z m0-91.92c-18.2848 0-33.16 14.8752-33.16 33.16s14.8752 33.1616 33.16 33.1616 33.1616-14.8768 33.1616-33.1616-14.8784-33.16-33.1616-33.16z" fill="#8a8a8a" p-id="23599"></path></svg>