<?xml version="1.0" standalone="no"?><!DOCTYPE svg PUBLIC "-//W3C//DTD SVG 1.1//EN" "http://www.w3.org/Graphics/SVG/1.1/DTD/svg11.dtd"><svg t="1637854860838" class="icon" viewBox="0 0 1024 1024" version="1.1" xmlns="http://www.w3.org/2000/svg" p-id="22474" xmlns:xlink="http://www.w3.org/1999/xlink" width="200" height="200"><defs><style type="text/css"></style></defs><path d="M742 273c102.725 0 186 83.275 186 186v44c0 93.9-69.583 171.55-159.998 184.197L768 727c0 13.255-10.745 24-24 24h-80c-13.255 0-24-10.745-24-24l-0.001-38H384v38c0 13.255-10.745 24-24 24h-80c-13.255 0-24-10.745-24-24l-0.002-39.803C165.583 674.55 96 596.901 96 503v-44c0-102.725 83.275-186 186-186h460zM350 691h-60v26h60v-26z m384 0h-60v26h60v-26z m8-384H282c-83.108 0-150.637 66.698-151.98 149.486L130 459v44c0 83.108 66.698 150.637 149.486 151.98L282 655h460c83.108 0 150.637-66.698 151.98-149.486L894 503v-44c0-83.108-66.698-150.637-149.486-151.98L742 307z" fill="#8a8a8a" p-id="22475"></path><path d="M751 541c25.957 0 47 21.043 47 47s-21.043 47-47 47H273c-25.957 0-47-21.043-47-47s21.043-47 47-47h478z m0 24H273c-12.703 0-23 10.297-23 23 0 12.576 10.093 22.794 22.62 22.997l0.38 0.003h478c12.703 0 23-10.297 23-23 0-12.576-10.093-22.794-22.62-22.997L751 565z m-239 6c9.389 0 17 7.611 17 17s-7.611 17-17 17-17-7.611-17-17 7.611-17 17-17z m-184 0c9.389 0 17 7.611 17 17s-7.611 17-17 17-17-7.611-17-17 7.611-17 17-17z m368 0c9.389 0 17 7.611 17 17s-7.611 17-17 17-17-7.611-17-17 7.611-17 17-17zM506.685 342.942a8 8 0 0 1 11.108 0.461l0.186 0.203 0.816 0.92C545.598 374.837 559 397.995 559 414c0 25.957-21.043 47-47 47s-47-21.043-47-47c0-16.167 13.674-39.632 41.021-70.394a8 8 0 0 1 0.664-0.664zM512 373.654l-0.557 0.696c-6.52 8.172-11.673 15.526-15.452 22.01l-0.541 0.94c-4.502 7.904-6.45 13.664-6.45 16.7 0 12.703 10.297 23 23 23s23-10.297 23-23c0-3.11-2.051-9.104-6.824-17.351-3.745-6.472-8.874-13.822-15.373-21.99l-0.803-1.005z" fill="#8a8a8a" p-id="22476"></path></svg>