<?xml version="1.0" standalone="no"?><!DOCTYPE svg PUBLIC "-//W3C//DTD SVG 1.1//EN" "http://www.w3.org/Graphics/SVG/1.1/DTD/svg11.dtd"><svg t="1637854581383" class="icon" viewBox="0 0 1024 1024" version="1.1" xmlns="http://www.w3.org/2000/svg" p-id="19776" xmlns:xlink="http://www.w3.org/1999/xlink" width="200" height="200"><defs><style type="text/css"></style></defs><path d="M928.72 205.13c-18.03-18.05-43-28.4-68.52-28.4H164c-25.52 0-50.49 10.35-68.51 28.39-18.31 18.3-28.39 42.64-28.39 68.52V593.5c0 25.89 10.08 50.21 28.38 68.52 18.29 18.29 42.62 28.38 68.52 28.38h696.2c25.9 0 50.23-10.09 68.5-28.36 18.31-18.31 28.4-42.65 28.4-68.54V273.64c0-25.9-10.09-50.24-28.38-68.51zM139.4 249.01c6.47-6.47 15.44-10.19 24.6-10.19h696.2c9.16 0 18.13 3.72 24.62 10.21 6.57 6.57 10.19 15.31 10.19 24.61v229.45H129.19V273.64c0-9.3 3.62-18.04 10.21-24.63z m745.4 369.11c-6.47 6.47-15.43 10.19-24.6 10.19H164c-9.17 0-18.13-3.72-24.61-10.19-6.48-6.49-10.2-15.46-10.2-24.62v-42.3H895v42.3c0.01 9.3-3.61 18.05-10.2 24.62z" fill="#666666" p-id="19777"></path><path d="M709.67 370.13h94.08c15.59 0 28.22-10.77 28.22-24.06s-12.64-24.06-28.22-24.06h-94.08c-15.59 0-28.22 10.77-28.22 24.06-0.01 13.29 12.63 24.06 28.22 24.06zM192.22 697c-13.29 0-24.06 12.64-24.06 28.22v94.08c0 15.59 10.77 28.23 24.06 28.23s24.06-12.64 24.06-28.23v-94.08c0-15.59-10.77-28.22-24.06-28.22zM352.16 697c-13.28 0-24.06 12.64-24.06 28.22v94.08c0 15.59 10.77 28.23 24.06 28.23s24.06-12.64 24.06-28.23v-94.08c0-15.59-10.77-28.22-24.06-28.22zM512.1 697c-13.29 0-24.06 12.64-24.06 28.22v94.08c0 15.59 10.77 28.23 24.06 28.23 13.28 0 24.06-12.64 24.06-28.23v-94.08c0-15.59-10.78-28.22-24.06-28.22zM672.04 697c-13.29 0-24.06 12.64-24.06 28.22v94.08c0 15.59 10.77 28.23 24.06 28.23 13.28 0 24.06-12.64 24.06-28.23v-94.08c-0.01-15.59-10.78-28.22-24.06-28.22zM831.97 697c-13.29 0-24.06 12.64-24.06 28.22v94.08c0 15.59 10.77 28.23 24.06 28.23s24.06-12.64 24.06-28.23v-94.08c0-15.59-10.77-28.22-24.06-28.22z" fill="#666666" p-id="19778"></path></svg>